<svg xmlns="http://www.w3.org/2000/svg" xmlns:xlink="http://www.w3.org/1999/xlink" version="1.1" width="180" height="68.06562805175781" viewBox="0 -2.0406250953674316 180 68.06562805175781">
  <!-- Exported by Scratch - http://scratch.mit.edu/ -->
  <g id="ID0.7186457575298846">
    <g id="ID0.4822641797363758">
      <path id="ID0.39894486265257" fill="none" stroke="#FFFFFF" stroke-width="0.015140045434236526" d="M 71.1457 23.2496 L 71.3879 23.2496 L 71.3879 23.4919 L 71.1457 23.4919 L 71.1457 23.2496 Z "/>
      <path id="ID0.34028634801506996" fill="none" stroke="#FFFFFF" stroke-width="0.015140045434236526" stroke-linecap="round" d="M 71.3812 23.3707 L 71.2562 23.3707 L 71.2808 23.4048 "/>
      <path id="ID0.34028634801506996" fill="none" stroke="#FFFFFF" stroke-width="0.015140045434236526" stroke-linecap="round" d="M 71.3812 23.3793 L 71.2562 23.3793 L 71.2808 23.3452 "/>
    </g>
    <g id="ID0.4822641797363758">
      <path id="ID0.39894486265257" fill="none" stroke="#FFFFFF" stroke-width="0.015140044996143432" d="M 71.4267 23.4477 L 71.4234 23.2055 L 71.6657 23.2022 L 71.6689 23.4445 L 71.4267 23.4477 Z "/>
      <path id="ID0.34028634801506996" fill="none" stroke="#FFFFFF" stroke-width="0.015140044996143432" stroke-linecap="round" d="M 71.5453 23.2607 L 71.547 23.3855 L 71.5807 23.3605 "/>
      <path id="ID0.34028634801506996" fill="none" stroke="#FFFFFF" stroke-width="0.015140044996143432" stroke-linecap="round" d="M 71.554 23.2774 L 71.5556 23.4023 L 71.5212 23.3781 "/>
    </g>
    <g id="ID0.4822641797363758">
      <path id="ID0.39894486265257" fill="none" stroke="#FFFFFF" stroke-width="0.015140045251681845" d="M 71.4162 22.9907 L 71.4186 23.2329 L 71.6608 23.2306 L 71.6584 22.9883 L 71.4162 22.9907 Z "/>
      <path id="ID0.34028634801506996" fill="none" stroke="#FFFFFF" stroke-width="0.015140045251681845" stroke-linecap="round" d="M 71.5391 23.175 L 71.5379 23.0501 L 71.5722 23.0744 "/>
      <path id="ID0.34028634801506996" fill="none" stroke="#FFFFFF" stroke-width="0.015140045251681845" stroke-linecap="round" d="M 71.5477 23.1871 L 71.5465 23.0622 L 71.5126 23.0872 "/>
    </g>
    <g id="ID0.4822641797363758">
      <path id="ID0.39894486265257" fill="none" stroke="#FFFFFF" stroke-width="0.015140045434236526" d="M 71.9043 23.2496 L 71.6621 23.2496 L 71.6621 23.4919 L 71.9043 23.4919 L 71.9043 23.2496 Z "/>
      <path id="ID0.34028634801506996" fill="none" stroke="#FFFFFF" stroke-width="0.015140045434236526" stroke-linecap="round" d="M 71.7188 23.3707 L 71.8438 23.3707 L 71.8192 23.4048 "/>
      <path id="ID0.34028634801506996" fill="none" stroke="#FFFFFF" stroke-width="0.015140045434236526" stroke-linecap="round" d="M 71.7188 23.3293 L 71.8438 23.3293 L 71.8192 23.2952 "/>
    </g>
  </g>
  <g id="ID0.9104081685654819">
    <path id="ID0.34028634801506996" fill="none" stroke="#FFFFFF" stroke-width="0.02152567845368245" stroke-linecap="round" d="M 65.6085 17.4888 L 65.6109 17.7351 L 65.6238 17.6864 "/>
    <path id="ID0.34028634801506996" fill="none" stroke="#FFFFFF" stroke-width="0.021229710701947988" stroke-linecap="round" d="M 65.6182 17.6604 L 65.6149 17.4141 L 65.6083 17.4627 "/>
    <path id="ID0.34028634801506996" fill="none" stroke="#FFFFFF" stroke-width="0.02121293985020759" stroke-linecap="round" d="M 65.6224 17.607 L 65.6191 17.3607 L 65.6264 17.4091 "/>
    <path id="ID0.34028634801506996" fill="none" stroke="#FFFFFF" stroke-width="0.0026565563563134887" stroke-linecap="round" d="M 65.6291 17.4393 L 65.6006 17.4393 L 65.6062 17.436 "/>
    <path id="ID0.34028634801506996" fill="none" stroke="#FFFFFF" stroke-width="0.0029850746504962444" stroke-linecap="round" d="M 65.6291 17.5776 L 65.6537 17.5776 L 65.6489 17.5709 "/>
    <path id="ID0.39894486265257" fill="none" stroke="#FFFFFF" stroke-width="0.02985074557363987" d="M 65.1433 17.7149 L 65.6209 17.7149 L 65.6209 17.2373 L 65.1433 17.2373 L 65.1433 17.7149 Z "/>
    <path id="ID0.39894486265257" fill="none" stroke="#FFFFFF" stroke-width="0.02985074557363987" d="M 66.6067 17.7149 L 66.1291 17.7149 L 66.1291 17.2373 L 66.6067 17.2373 L 66.6067 17.7149 Z "/>
    <path id="ID0.34028634801506996" fill="none" stroke="#FFFFFF" stroke-width="0.021859279358626214" stroke-linecap="round" d="M 65.891 17.7205 L 66.1373 17.7205 L 66.0888 17.7024 "/>
    <path id="ID0.34028634801506996" fill="none" stroke="#FFFFFF" stroke-width="0.021435474083531667" stroke-linecap="round" d="M 66.0979 17.4123 L 66.1136 17.6581 L 66.0986 17.6105 "/>
    <path id="ID0.39894486265257" fill="none" stroke="#FFFFFF" stroke-width="0.02985074479023485" d="M 66.1101 17.2563 L 66.1165 17.7338 L 65.639 17.7403 L 65.6325 17.2627 L 66.1101 17.2563 Z "/>
    <path id="ID0.39894486265257" fill="none" stroke="#FFFFFF" stroke-width="0.029850745155342997" d="M 66.1323 18.2165 L 66.1276 17.7389 L 65.65 17.7436 L 65.6547 18.2212 L 66.1323 18.2165 Z "/>
    <path id="ID0.34028634801506996" fill="none" stroke="#FFFFFF" stroke-width="0.02152567845368245" stroke-linecap="round" d="M 65.669 17.6936 L 65.6714 17.9399 L 65.6575 17.8915 "/>
    <text id="ID0.2448907271027565" fill="#FFFFFF" text-anchor="start" font-family="Sans Serif" font-size="22" transform="matrix(-0.0149254 0 0 -0.0149254 66.0701 18.1948)" stroke-width="1" alignment-baseline="text-before-edge" xml:space="preserve"><tspan x="0" style="white-space: pre" dy="1.13em">W</tspan></text>
    <text id="ID0.9974097427912056" fill="#FFFFFF" text-anchor="start" font-family="Sans Serif" font-size="22" transform="matrix(-0.0149254 0 0 -0.0149254 66.5202 17.7448)" stroke-width="1" alignment-baseline="text-before-edge" xml:space="preserve"><tspan x="0" style="white-space: pre" dy="1.13em">A</tspan></text>
    <text id="ID0.19173079263418913" fill="#FFFFFF" text-anchor="start" font-family="Sans Serif" font-size="22" transform="matrix(-0.0149254 0 0 -0.0149254 65.9701 17.7448)" stroke-width="1" alignment-baseline="text-before-edge" xml:space="preserve"><tspan x="0" style="white-space: pre" dy="1.13em">S</tspan></text>
    <text id="ID0.499892916996032" fill="#FFFFFF" text-anchor="start" font-family="Sans Serif" font-size="22" transform="matrix(-0.0149254 0 0 -0.0149254 65.4701 17.7448)" stroke-width="1" alignment-baseline="text-before-edge" xml:space="preserve"><tspan x="0" style="white-space: pre" dy="1.13em">D</tspan></text>
  </g>
  <g id="ID0.9881853153929114">
    <path id="ID0.7273527593351901" fill="none" stroke="#FFFFFF" stroke-width="2" d="M 1 1 L 179 1 L 179 31 L 1 31 L 1 1 Z "/>
    <text id="ID0.32735672453418374" fill="#FFFFFF" text-anchor="start" font-family="Sans Serif" font-size="22" transform="matrix(1 0 0 1 54 -1.9)" stroke-width="1" alignment-baseline="text-before-edge" xml:space="preserve"><tspan x="0" style="white-space: pre" dy="1.13em">Space</tspan></text>
  </g>
  <text id="ID0.6451743156649172" fill="#FFFFFF" text-anchor="start" font-family="Sans Serif" font-size="22" transform="matrix(1 0 0 1 51 34.15)" stroke-width="1" alignment-baseline="text-before-edge" xml:space="preserve"><tspan x="0" style="white-space: pre" dy="1.13em">(Jump)</tspan></text>
</svg>