<svg xmlns="http://www.w3.org/2000/svg" xmlns:xlink="http://www.w3.org/1999/xlink" version="1.1" width="100.5" height="97.39440155029297" viewBox="0.25 0.6305999755859375 100.5 97.39440155029297">
  <!-- Exported by Scratch - http://scratch.mit.edu/ -->
  <g id="ID0.7186457575298846">
    <g id="ID0.4822641797363758">
      <path id="ID0.39894486265257" fill="none" stroke="#FFFFFF" stroke-width="2" d="M 1.25 33.5 L 33.25 33.5 L 33.25 65.5 L 1.25 65.5 L 1.25 33.5 Z "/>
      <path id="ID0.34028634801506996" fill="none" stroke="#FFFFFF" stroke-width="2" stroke-linecap="round" d="M 26.5 50.75 L 10 50.75 L 13.25 55.25 "/>
      <path id="ID0.34028634801506996" fill="none" stroke="#FFFFFF" stroke-width="2" stroke-linecap="round" d="M 26.25 50.25 L 9.75 50.25 L 13 45.75 "/>
    </g>
    <g id="ID0.4822641797363758">
      <path id="ID0.39894486265257" fill="none" stroke="#FFFFFF" stroke-width="1.9999999829080135" d="M 34.324 65.6305 L 33.8926 33.6334 L 65.8897 33.202 L 66.3211 65.1991 L 34.324 65.6305 Z "/>
      <path id="ID0.34028634801506996" fill="none" stroke="#FFFFFF" stroke-width="1.9999999829080135" stroke-linecap="round" d="M 51.1422 40.1171 L 51.3647 56.6156 L 55.8205 53.3052 "/>
      <path id="ID0.34028634801506996" fill="none" stroke="#FFFFFF" stroke-width="1.9999999829080135" stroke-linecap="round" d="M 50.6571 40.3781 L 50.8796 56.8766 L 46.3362 53.6876 "/>
    </g>
    <g id="ID0.4822641797363758">
      <path id="ID0.39894486265257" fill="none" stroke="#FFFFFF" stroke-width="1.999999966385637" d="M 33.588 1.9437 L 33.9011 33.9421 L 65.8995 33.6291 L 65.5865 1.6306 L 33.588 1.9437 Z "/>
      <path id="ID0.34028634801506996" fill="none" stroke="#FFFFFF" stroke-width="1.999999966385637" stroke-linecap="round" d="M 51.0769 27.036 L 50.9155 10.5368 L 55.4471 13.7426 "/>
      <path id="ID0.34028634801506996" fill="none" stroke="#FFFFFF" stroke-width="1.999999966385637" stroke-linecap="round" d="M 50.5348 26.7902 L 50.3734 10.291 L 45.9054 13.5849 "/>
    </g>
    <g id="ID0.4822641797363758">
      <path id="ID0.39894486265257" fill="none" stroke="#FFFFFF" stroke-width="2" d="M 99.75 33 L 67.75 33 L 67.75 65 L 99.75 65 L 99.75 33 Z "/>
      <path id="ID0.34028634801506996" fill="none" stroke="#FFFFFF" stroke-width="2" stroke-linecap="round" d="M 74.5 50.25 L 91 50.25 L 87.75 54.75 "/>
      <path id="ID0.34028634801506996" fill="none" stroke="#FFFFFF" stroke-width="2" stroke-linecap="round" d="M 74.75 49.75 L 91.25 49.75 L 88 45.25 "/>
    </g>
  </g>
  <g id="ID0.9104081685654819">
    <path id="ID0.34028634801506996" fill="none" stroke="#FFFFFF" stroke-width="0.0021818766004314018" stroke-linecap="round" d="M 32.6789 61.9262 L 32.6786 61.9012 L 32.6773 61.9061 "/>
    <path id="ID0.34028634801506996" fill="none" stroke="#FFFFFF" stroke-width="0.002151876926997548" stroke-linecap="round" d="M 32.6583 61.9239 L 32.6586 61.9489 L 32.6593 61.9439 "/>
    <path id="ID0.34028634801506996" fill="none" stroke="#FFFFFF" stroke-width="0.0021501770098321174" stroke-linecap="round" d="M 32.6825 61.9243 L 32.6829 61.9492 L 32.6821 61.9443 "/>
    <path id="ID0.34028634801506996" fill="none" stroke="#FFFFFF" stroke-width="0.0002692727411134519" stroke-linecap="round" d="M 32.6565 61.9562 L 32.6594 61.9562 L 32.6588 61.9565 "/>
    <path id="ID0.34028634801506996" fill="none" stroke="#FFFFFF" stroke-width="0.00030257186153903604" stroke-linecap="round" d="M 32.6876 61.9624 L 32.6851 61.9624 L 32.6856 61.9631 "/>
    <path id="ID0.39894486265257" fill="none" stroke="#FFFFFF" stroke-width="0.0030257184989750385" d="M 32.7111 61.8998 L 32.6627 61.8998 L 32.6627 61.9483 L 32.7111 61.9483 L 32.7111 61.8998 Z "/>
    <path id="ID0.39894486265257" fill="none" stroke="#FFFFFF" stroke-width="0.0030257184989750385" d="M 32.5889 61.9498 L 32.6373 61.9498 L 32.6373 61.9983 L 32.5889 61.9983 L 32.5889 61.9498 Z "/>
    <path id="ID0.34028634801506996" fill="none" stroke="#FFFFFF" stroke-width="0.0022156909284626026" stroke-linecap="round" d="M 32.6259 61.9334 L 32.601 61.9334 L 32.6059 61.9352 "/>
    <path id="ID0.34028634801506996" fill="none" stroke="#FFFFFF" stroke-width="0.002172733255892471" stroke-linecap="round" d="M 32.6458 61.9738 L 32.6442 61.9489 L 32.6458 61.9537 "/>
    <path id="ID0.39894486265257" fill="none" stroke="#FFFFFF" stroke-width="0.0030257185291304146" d="M 32.6453 61.9598 L 32.6446 61.9114 L 32.693 61.9107 L 32.6937 61.9592 L 32.6453 61.9598 Z "/>
    <path id="ID0.39894486265257" fill="none" stroke="#FFFFFF" stroke-width="0.0030257184459956516" d="M 32.6032 61.8879 L 32.6036 61.9363 L 32.652 61.9358 L 32.6516 61.8874 L 32.6032 61.8879 Z "/>
    <path id="ID0.34028634801506996" fill="none" stroke="#FFFFFF" stroke-width="0.0021818766004314018" stroke-linecap="round" d="M 32.6785 61.9257 L 32.6782 61.9007 L 32.6797 61.9056 "/>
    <text id="ID0.2448907271027565" fill="#FFFFFF" text-anchor="start" font-family="Sans Serif" font-size="22" transform="matrix(0.00151286 0 0 0.00151286 32.653 61.8955)" stroke-width="1" alignment-baseline="text-before-edge" xml:space="preserve"><tspan x="0" style="white-space: pre" dy="1.13em">W</tspan></text>
    <text id="ID0.9974097427912056" fill="#FFFFFF" text-anchor="start" font-family="Sans Serif" font-size="22" transform="matrix(0.00151286 0 0 0.00151286 32.603 61.9455)" stroke-width="1" alignment-baseline="text-before-edge" xml:space="preserve"><tspan x="0" style="white-space: pre" dy="1.13em">A</tspan></text>
    <text id="ID0.19173079263418913" fill="#FFFFFF" text-anchor="start" font-family="Sans Serif" font-size="22" transform="matrix(0.00151286 0 0 0.00151286 32.653 61.9455)" stroke-width="1" alignment-baseline="text-before-edge" xml:space="preserve"><tspan x="0" style="white-space: pre" dy="1.13em">S</tspan></text>
    <text id="ID0.499892916996032" fill="#FFFFFF" text-anchor="start" font-family="Sans Serif" font-size="22" transform="matrix(0.00151286 0 0 0.00151286 32.703 61.9455)" stroke-width="1" alignment-baseline="text-before-edge" xml:space="preserve"><tspan x="0" style="white-space: pre" dy="1.13em">D</tspan></text>
  </g>
  <g id="ID0.9881853153929114">
    <path id="ID0.7273527593351901" fill="none" stroke="#FFFFFF" stroke-width="0.0030257184989750385" d="M 32.6542 61.8635 L 32.9235 61.8635 L 32.9235 61.9089 L 32.6542 61.9089 L 32.6542 61.8635 Z "/>
    <text id="ID0.32735672453418374" fill="#FFFFFF" text-anchor="start" font-family="Sans Serif" font-size="22" transform="matrix(0.00151286 0 0 0.00151286 32.753 61.8955)" stroke-width="1" alignment-baseline="text-before-edge" xml:space="preserve"><tspan x="0" style="white-space: pre" dy="1.13em">Space</tspan></text>
  </g>
  <text id="ID0.5923530315048993" fill="#FFFFFF" text-anchor="start" font-family="Sans Serif" font-size="22" transform="matrix(1 0 0 1 19 66.15)" stroke-width="1" alignment-baseline="text-before-edge" xml:space="preserve"><tspan x="0" style="white-space: pre" dy="1.13em">(Look)</tspan></text>
</svg>