<svg xmlns="http://www.w3.org/2000/svg" xmlns:xlink="http://www.w3.org/1999/xlink" version="1.1" width="100.85848236083984" height="95.99440002441406" viewBox="0.25 0.03059995174407959 100.85848236083984 95.99440002441406">
  <!-- Exported by Scratch - http://scratch.mit.edu/ -->
  <g id="ID0.7186457575298846">
    <g id="ID0.4822641797363758">
      <path id="ID0.39894486265257" fill="none" stroke="#FFFFFF" stroke-width="0.030845770612359047" d="M 64.7547 11.5679 L 65.2483 11.5679 L 65.2483 12.0614 L 64.7547 12.0614 L 64.7547 11.5679 Z "/>
      <path id="ID0.34028634801506996" fill="none" stroke="#FFFFFF" stroke-width="0.030845770612359047" stroke-linecap="round" d="M 65.1326 11.8647 L 64.8781 11.8647 L 64.9282 11.9341 "/>
      <path id="ID0.34028634801506996" fill="none" stroke="#FFFFFF" stroke-width="0.030845770612359047" stroke-linecap="round" d="M 65.1326 11.8353 L 64.8781 11.8353 L 64.9282 11.7659 "/>
    </g>
    <g id="ID0.4822641797363758">
      <path id="ID0.39894486265257" fill="none" stroke="#FFFFFF" stroke-width="0.030845770858226578" d="M 65.2712 12.0819 L 65.2646 11.5884 L 65.7581 11.5817 L 65.7647 12.0752 L 65.2712 12.0819 Z "/>
      <path id="ID0.34028634801506996" fill="none" stroke="#FFFFFF" stroke-width="0.030845770858226578" stroke-linecap="round" d="M 65.5129 11.7007 L 65.5163 11.9552 L 65.585 11.9041 "/>
      <path id="ID0.34028634801506996" fill="none" stroke="#FFFFFF" stroke-width="0.030845770858226578" stroke-linecap="round" d="M 65.5338 11.6848 L 65.5372 11.9393 L 65.4671 11.8901 "/>
    </g>
    <g id="ID0.4822641797363758">
      <path id="ID0.39894486265257" fill="none" stroke="#FFFFFF" stroke-width="0.030845769373106808" d="M 65.2517 11.0946 L 65.2565 11.5881 L 65.75 11.5833 L 65.7452 11.0898 L 65.2517 11.0946 Z "/>
      <path id="ID0.34028634801506996" fill="none" stroke="#FFFFFF" stroke-width="0.030845769373106808" stroke-linecap="round" d="M 65.5521 11.47 L 65.5496 11.2156 L 65.6195 11.265 "/>
      <path id="ID0.34028634801506996" fill="none" stroke="#FFFFFF" stroke-width="0.030845769373106808" stroke-linecap="round" d="M 65.5229 11.4948 L 65.5204 11.2403 L 65.4515 11.2911 "/>
    </g>
    <g id="ID0.4822641797363758">
      <path id="ID0.39894486265257" fill="none" stroke="#FFFFFF" stroke-width="0.030845770612359047" d="M 66.2953 11.5679 L 65.8017 11.5679 L 65.8017 12.0614 L 66.2953 12.0614 L 66.2953 11.5679 Z "/>
      <path id="ID0.34028634801506996" fill="none" stroke="#FFFFFF" stroke-width="0.030845770612359047" stroke-linecap="round" d="M 65.8674 11.8647 L 66.1219 11.8647 L 66.0718 11.9341 "/>
      <path id="ID0.34028634801506996" fill="none" stroke="#FFFFFF" stroke-width="0.030845770612359047" stroke-linecap="round" d="M 65.9174 11.8353 L 66.1719 11.8353 L 66.1218 11.7659 "/>
    </g>
  </g>
  <g id="ID0.9104081685654819">
    <path id="ID0.34028634801506996" fill="none" stroke="#FFFFFF" stroke-width="1.44222048429313" stroke-linecap="round" d="M 67.0816 49.6485 L 66.9202 33.1493 L 66.0521 36.408 "/>
    <path id="ID0.34028634801506996" fill="none" stroke="#FFFFFF" stroke-width="1.4223906747593393" stroke-linecap="round" d="M 66.8796 39.2535 L 67.1021 55.752 L 67.5429 52.4958 "/>
    <path id="ID0.34028634801506996" fill="none" stroke="#FFFFFF" stroke-width="1.4212670284187645" stroke-linecap="round" d="M 66.9504 40.6331 L 67.1729 57.1316 L 66.6791 53.888 "/>
    <path id="ID0.34028634801506996" fill="none" stroke="#FFFFFF" stroke-width="0.17798928493085459" stroke-linecap="round" d="M 65.9032 51.5654 L 67.812 51.5654 L 67.436 51.7885 "/>
    <path id="ID0.34028634801506996" fill="none" stroke="#FFFFFF" stroke-width="0.20000000298023224" stroke-linecap="round" d="M 68 43.85 L 66.35 43.85 L 66.675 44.3 "/>
    <path id="ID0.39894486265257" fill="none" stroke="#FFFFFF" stroke-width="2" d="M 99.75 32.5 L 67.75 32.5 L 67.75 64.5 L 99.75 64.5 L 99.75 32.5 Z "/>
    <path id="ID0.39894486265257" fill="none" stroke="#FFFFFF" stroke-width="2" d="M 1.25 33 L 33.25 33 L 33.25 65 L 1.25 65 L 1.25 33 Z "/>
    <path id="ID0.34028634801506996" fill="none" stroke="#FFFFFF" stroke-width="1.4645717561847806" stroke-linecap="round" d="M 48 32.2769 L 31.5 32.2769 L 34.75 33.4885 "/>
    <path id="ID0.34028634801506996" fill="none" stroke="#FFFFFF" stroke-width="1.4361767621767436" stroke-linecap="round" d="M 33.9421 53.8231 L 32.8921 37.3565 L 33.8934 40.5493 "/>
    <path id="ID0.39894486265257" fill="none" stroke="#FFFFFF" stroke-width="1.9999999829080135" d="M 34.274 65.0805 L 33.8426 33.0834 L 65.8397 32.652 L 66.2711 64.6491 L 34.274 65.0805 Z "/>
    <path id="ID0.39894486265257" fill="none" stroke="#FFFFFF" stroke-width="1.999999966385637" d="M 33.538 1.3437 L 33.8511 33.3421 L 65.8495 33.0291 L 65.5365 1.0306 L 33.538 1.3437 Z "/>
    <path id="ID0.34028634801506996" fill="none" stroke="#FFFFFF" stroke-width="1.44222048429313" stroke-linecap="round" d="M 65.4801 35.9277 L 65.3187 19.4285 L 66.2504 22.6695 "/>
    <text id="ID0.2448907271027565" fill="#FFFFFF" text-anchor="start" font-family="Sans Serif" font-size="22" transform="matrix(1 0 0 1 38.25 0.75)" stroke-width="1" alignment-baseline="text-before-edge" xml:space="preserve"><tspan x="0" style="white-space: pre" dy="1.13em">W</tspan></text>
    <text id="ID0.9974097427912056" fill="#FFFFFF" text-anchor="start" font-family="Sans Serif" font-size="22" transform="matrix(1 0 0 1 7 31.4)" stroke-width="1" alignment-baseline="text-before-edge" xml:space="preserve"><tspan x="0" style="white-space: pre" dy="1.13em">A</tspan></text>
    <text id="ID0.19173079263418913" fill="#FFFFFF" text-anchor="start" font-family="Sans Serif" font-size="22" transform="matrix(1 0 0 1 42.75 31.65)" stroke-width="1" alignment-baseline="text-before-edge" xml:space="preserve"><tspan x="0" style="white-space: pre" dy="1.13em">S</tspan></text>
    <text id="ID0.499892916996032" fill="#FFFFFF" text-anchor="start" font-family="Sans Serif" font-size="22" transform="matrix(1 0 0 1 77.25 31.9)" stroke-width="1" alignment-baseline="text-before-edge" xml:space="preserve"><tspan x="0" style="white-space: pre" dy="1.13em">D</tspan></text>
  </g>
  <g id="ID0.9881853153929114">
    <path id="ID0.7273527593351901" fill="none" stroke="#FFFFFF" stroke-width="0.02222222276031971" d="M 98 32.9667 L 99.9778 32.9667 L 99.9778 33.3 L 98 33.3 L 98 32.9667 Z "/>
    <text id="ID0.32735672453418374" fill="#FFFFFF" text-anchor="start" font-family="Sans Serif" font-size="22" transform="matrix(0.0111111 0 0 0.0111111 98.5722 32.9167)" stroke-width="1" alignment-baseline="text-before-edge" xml:space="preserve"><tspan x="0" style="white-space: pre" dy="1.13em">Space</tspan></text>
  </g>
  <text id="ID0.243524388410151" fill="#FFFFFF" text-anchor="start" font-family="Sans Serif" font-size="22" transform="matrix(1 0 0 1 15 64.15)" stroke-width="1" alignment-baseline="text-before-edge" xml:space="preserve"><tspan x="0" style="white-space: pre" dy="1.13em">(Move)</tspan></text>
</svg>